<?xml version="1.0" standalone="no"?>
<!DOCTYPE svg PUBLIC "-//W3C//DTD SVG 20010904//EN"
 "http://www.w3.org/TR/2001/REC-SVG-20010904/DTD/svg10.dtd">
<svg version="1.0" xmlns="http://www.w3.org/2000/svg"
 width="512.000000pt" height="512.000000pt" viewBox="0 0 512.000000 512.000000"
 preserveAspectRatio="xMidYMid meet">
<metadata>
Created by potrace 1.16, written by Peter Selinger 2001-2019
</metadata>
<g transform="translate(0.000000,512.000000) scale(0.100000,-0.100000)"
fill="#000000" stroke="none">
<path d="M3393 3286 c-20 -11 -14 -14 58 -25 45 -7 83 -10 86 -8 2 3 -18 8
-46 12 -37 5 -48 10 -44 21 6 17 -23 17 -54 0z"/>
<path d="M3558 3243 c7 -3 16 -2 19 1 4 3 -2 6 -13 5 -11 0 -14 -3 -6 -6z"/>
<path d="M2585 3221 c-76 -8 -132 -34 -295 -141 -47 -30 -106 -66 -133 -80
-26 -14 -47 -28 -47 -31 0 -17 282 -56 470 -66 78 -4 145 -2 180 5 53 11 59
16 192 154 134 140 136 143 110 151 -36 11 -390 17 -477 8z m41 -62 c3 -6 19
-9 34 -7 l27 4 -28 -60 c-16 -33 -34 -63 -41 -67 -7 -3 -74 -14 -148 -23 -74
-10 -143 -20 -154 -23 -57 -16 58 64 198 138 100 53 102 54 112 38z"/>
<path d="M3241 3220 c-87 -19 -148 -69 -274 -227 -80 -100 -91 -118 -79 -139
6 -11 11 -13 16 -5 10 15 56 13 86 -4 40 -23 79 -19 89 8 8 20 19 25 71 30 33
4 69 11 80 17 20 11 164 40 321 65 80 12 112 23 180 61 46 26 86 48 88 50 3 3
-8 17 -25 33 -32 32 -134 74 -228 96 -78 18 -268 27 -325 15z m406 -105 c6 0
15 3 19 8 12 12 56 8 48 -4 -3 -6 -15 -9 -25 -6 -11 3 -19 2 -19 -2 0 -11
-236 -64 -249 -57 -6 4 -11 2 -11 -3 0 -6 -9 -11 -20 -11 -11 0 -20 7 -20 15
0 8 9 15 19 15 11 0 21 6 23 12 6 17 211 57 218 43 3 -6 10 -10 17 -10z m-287
-55 c0 -32 -5 -34 -128 -61 l-54 -13 36 -18 c20 -10 36 -25 36 -33 0 -12 -19
-15 -105 -15 -105 0 -119 5 -97 36 13 19 56 44 76 44 19 0 171 59 206 80 25
15 30 11 30 -20z"/>
<path d="M3765 3180 c11 -5 27 -9 35 -9 13 -1 13 0 0 9 -8 5 -24 9 -35 9 l-20
0 20 -9z"/>
<path d="M3951 2988 l-34 -9 29 -30 c50 -53 59 -53 59 -1 0 50 -5 54 -54 40z"/>
<path d="M3728 2929 c-55 -25 -67 -44 -29 -46 20 -1 22 0 7 6 -15 6 -11 10 23
26 23 10 44 22 47 27 7 11 6 11 -48 -13z"/>
<path d="M2761 2834 c0 -11 3 -14 6 -6 3 7 2 16 -1 19 -3 4 -6 -2 -5 -13z"/>
<path d="M3366 2811 c-16 -3 -31 -11 -33 -17 -5 -15 20 -24 48 -17 22 6 22 7
3 14 -15 6 -12 8 14 8 17 1 32 6 32 11 0 11 -18 11 -64 1z"/>
<path d="M3805 2769 c-56 -51 -92 -125 -120 -243 -19 -80 -25 -93 -51 -105
-25 -13 -32 -12 -64 6 -35 20 -36 20 -90 2 -30 -11 -62 -22 -70 -26 -8 -3 -22
-7 -30 -9 -8 -2 -64 -22 -125 -44 -111 -42 -146 -58 -265 -124 -36 -19 -71
-36 -77 -36 -10 0 -11 18 -7 73 16 186 -74 323 -211 320 -158 -2 -297 -166
-346 -409 -11 -54 -26 -102 -32 -106 -15 -10 -156 -9 -277 1 -93 8 -97 9 -175
62 -63 43 -97 58 -160 73 -104 24 -202 59 -297 107 l-78 39 0 -28 c0 -17 9
-37 23 -49 41 -38 170 -95 371 -163 210 -71 357 -100 522 -103 69 -1 72 -3 94
-34 56 -82 248 -130 338 -84 67 34 162 170 162 232 0 10 5 19 11 19 7 0 172
51 368 114 196 63 365 117 376 120 16 5 25 -2 40 -31 35 -64 154 -95 225 -58
39 20 87 121 99 206 5 37 16 80 25 97 19 37 20 58 4 68 -6 4 -8 3 -5 -4 4 -5
3 -21 -2 -34 -8 -19 -10 -13 -11 32 -1 63 -28 133 -58 149 -36 19 -61 12 -107
-30z m85 -104 c0 -14 -2 -25 -4 -25 -2 0 -6 11 -8 25 -3 14 -1 25 3 25 5 0 9
-11 9 -25z m-50 2 c0 -8 -7 -14 -15 -14 -11 0 -12 4 -4 14 6 7 13 13 15 13 2
0 4 -6 4 -13z m-43 -57 c-7 -17 -13 -26 -15 -21 -3 10 15 51 22 51 3 0 -1 -14
-7 -30z m137 -50 c-5 -4 -20 -11 -34 -14 -24 -7 -24 -6 3 9 15 9 27 21 28 28
0 8 2 8 6 -1 3 -8 1 -17 -3 -22z m-156 -21 c-4 -25 -1 -33 14 -37 10 -2 18 -8
18 -13 0 -11 -40 -32 -47 -25 -6 6 7 106 14 106 3 0 3 -14 1 -31z m151 -55 c2
-2 2 -6 -1 -9 -9 -9 -58 6 -58 17 0 9 49 3 59 -8z m-1232 -84 c-6 -22 -13 -38
-15 -36 -6 7 10 76 18 76 4 0 2 -18 -3 -40z m1217 15 c-4 -8 -8 -15 -10 -15
-2 0 -4 7 -4 15 0 8 4 15 10 15 5 0 7 -7 4 -15z m-1149 -15 c10 -11 16 -20 13
-20 -3 0 -13 9 -23 20 -10 11 -16 20 -13 20 3 0 13 -9 23 -20z m-177 -14 c0
-19 -3 -22 -13 -13 -9 8 -10 16 -3 25 14 17 16 16 16 -12z m1280 -38 c-11 -10
-28 -18 -37 -18 -9 1 -2 7 16 15 25 11 31 18 27 37 -4 21 -4 21 5 3 7 -15 4
-24 -11 -37z m-1328 -7 c-16 -31 -12 -39 23 -57 65 -34 55 -63 -13 -39 -35 12
-45 13 -52 3 -15 -21 2 33 23 75 11 20 22 37 25 37 2 0 0 -9 -6 -19z m265 -21
c4 -18 4 -21 -4 -11 -8 12 -16 10 -52 -14 l-43 -28 40 46 c41 47 47 48 59 7z
m14 -92 c0 -29 -3 -47 -6 -40 -2 6 -11 12 -19 12 -9 0 -13 -4 -10 -8 3 -5 -17
-5 -44 1 -28 5 -50 13 -50 17 0 4 27 10 60 14 55 6 60 9 60 31 0 14 2 25 5 25
3 0 5 -24 4 -52z m-209 -67 c0 -5 -23 -28 -52 -50 -50 -40 -67 -42 -68 -5 0
12 71 47 95 47 8 0 15 4 15 9 0 4 2 8 5 8 3 0 5 -4 5 -9z m104 -20 c9 -7 14
-17 11 -21 -3 -4 5 -21 17 -36 15 -20 17 -24 5 -15 -32 25 -78 89 -63 87 8 -1
21 -8 30 -15z m-87 -73 c-3 -8 -6 -5 -6 6 -1 11 2 17 5 13 3 -3 4 -12 1 -19z
m163 16 c0 -8 -19 -13 -24 -6 -3 5 1 9 9 9 8 0 15 -2 15 -3z m-181 -83 c-7
-23 -14 -39 -16 -37 -3 2 1 23 8 45 7 23 14 39 16 37 3 -2 -1 -23 -8 -45z m44
-38 c-7 -2 -21 -2 -30 0 -10 3 -4 5 12 5 17 0 24 -2 18 -5z"/>
<path d="M2690 2146 c0 -2 8 -10 18 -17 15 -13 16 -12 3 4 -13 16 -21 21 -21
13z"/>
<path d="M1409 2763 c-13 -16 -12 -17 4 -4 16 13 21 21 13 21 -2 0 -10 -8 -17
-17z"/>
<path d="M2900 2690 c0 -7 -8 -9 -20 -5 -12 4 -20 2 -20 -5 0 -7 -8 -9 -19 -5
-11 3 -22 1 -26 -5 -3 -6 -10 -8 -14 -6 -4 3 -13 1 -20 -3 -8 -6 -1 -13 24
-25 33 -16 39 -16 85 -1 26 9 51 23 54 32 8 19 8 18 -21 27 -15 5 -23 3 -23
-4z"/>
<path d="M1488 2673 c7 -3 16 -2 19 1 4 3 -2 6 -13 5 -11 0 -14 -3 -6 -6z"/>
<path d="M1588 2643 c7 -3 16 -2 19 1 4 3 -2 6 -13 5 -11 0 -14 -3 -6 -6z"/>
<path d="M2255 2619 c-182 -48 -322 -72 -353 -61 -26 9 -27 8 -26 -25 4 -70
38 -85 170 -72 170 15 184 19 223 55 l36 33 -35 -9 c-41 -10 -256 -30 -329
-30 -62 0 -67 17 -8 24 183 24 376 49 394 51 13 1 26 5 30 10 5 4 2 5 -6 0
-10 -5 -12 -4 -7 4 4 6 12 9 17 5 12 -7 41 15 33 27 -3 5 1 6 9 3 8 -3 18 -1
22 5 11 19 -53 11 -170 -20z"/>
<path d="M1628 2633 c7 -3 16 -2 19 1 4 3 -2 6 -13 5 -11 0 -14 -3 -6 -6z"/>
<path d="M1317 2623 c-11 -10 -8 -25 4 -18 17 11 132 -36 120 -48 -6 -6 -11
-21 -11 -34 l0 -23 -51 26 c-28 14 -53 23 -56 20 -9 -8 15 -67 42 -101 50 -66
190 -121 327 -127 l62 -3 12 65 12 64 -32 31 c-25 26 -66 43 -221 93 -205 67
-199 65 -208 55z m268 -103 l90 -31 -75 7 c-57 5 -78 11 -88 25 -7 11 -22 19
-33 19 -24 0 -26 -30 -1 -31 13 0 14 -2 2 -6 -8 -3 -18 -10 -21 -15 -11 -16
-17 16 -8 40 11 29 26 28 134 -8z m-65 -48 c0 -15 -2 -15 -10 -2 -13 20 -13
33 0 25 6 -3 10 -14 10 -23z m-10 -30 c3 -3 -3 -2 -12 1 -10 4 -18 2 -18 -3 0
-5 7 -11 15 -13 12 -4 12 -5 -1 -3 -9 0 -21 11 -25 24 -8 21 -7 22 14 11 12
-6 24 -14 27 -17z"/>
<path d="M1675 2620 c11 -5 27 -9 35 -9 9 0 8 4 -5 9 -11 5 -27 9 -35 9 -9 0
-8 -4 5 -9z"/>
<path d="M1738 2603 c7 -3 16 -2 19 1 4 3 -2 6 -13 5 -11 0 -14 -3 -6 -6z"/>
<path d="M2153 2380 c-48 -24 -68 -41 -93 -80 -18 -28 -30 -53 -27 -56 2 -3
39 -22 80 -44 l75 -38 7 56 c3 32 5 73 5 92 -1 19 3 50 8 68 6 17 10 32 9 32
-1 0 -30 -14 -64 -30z"/>
</g>
</svg>